<svg
  xmlns="http://www.w3.org/2000/svg"
  xmlns:xlink="http://www.w3.org/1999/xlink"
>
  <defs>
    <!-- Student -->
    <svg
      version="1.1"
      id="student"
      xmlns="http://www.w3.org/2000/svg"
      xmlns:xlink="http://www.w3.org/1999/xlink"
      x="0px"
      y="0px"
      viewBox="0 0 512.005 512.005"
      xml:space="preserve"
    >
      <g>
        <g>
          <g>
            <path
              fill="currentColor"
              d="M307.204,255.997c17.237,0,31.394-12.894,33.664-29.525l31.189-23.381c3.772-2.825,4.54-8.175,1.707-11.947
				c-2.825-3.772-8.175-4.548-11.947-1.707l-21.751,16.316c-3.251-10.402-12.86-18.022-24.328-18.022h-34.133
				c-14.114,0-25.6,11.486-25.6,25.6c0-14.114-11.486-25.6-25.6-25.6H196.27c-11.469,0-21.077,7.62-24.329,18.022l-21.751-16.316
				c-3.763-2.825-9.122-2.057-11.947,1.707c-2.833,3.772-2.065,9.122,1.707,11.947l31.189,23.381
				c2.27,16.631,16.418,29.525,33.664,29.525h17.067c18.825,0,34.133-15.309,34.133-34.133c0,18.825,15.309,34.133,34.133,34.133
				H307.204z M238.937,221.864c0,9.412-7.663,17.067-17.067,17.067h-17.067c-9.404,0-17.067-7.654-17.067-17.067v-8.533
				c0-4.702,3.823-8.533,8.533-8.533h34.133c4.71,0,8.533,3.831,8.533,8.533V221.864z M273.07,221.864v-8.533
				c0-4.702,3.823-8.533,8.533-8.533h34.133c4.71,0,8.533,3.831,8.533,8.533v8.533c0,9.412-7.663,17.067-17.067,17.067h-17.067
				C280.733,238.93,273.07,231.276,273.07,221.864z"
            />
            <path
              fill="currentColor"
              d="M511.748,501.39l-8.721-34.756c-4.378-13.158-30.285-55.484-178.756-56.636v-8.934c0-4.71-3.814-8.533-8.533-8.533
				s-8.533,3.823-8.533,8.533v17.067c0,0.06,0.034,0.111,0.034,0.171c0,0.051-0.034,0.094-0.034,0.154
				c-0.034,5.205-1.749,50.876-51.2,50.876c-49.451,0-51.166-45.986-51.2-51.2v-17.067c0-4.71-3.814-8.533-8.533-8.533
				s-8.533,3.823-8.533,8.533v8.619C77.162,410.553,21.789,428.2,8.793,467.257L0.26,501.39c-1.152,4.574,1.638,9.207,6.212,10.351
				c4.557,1.161,9.199-1.638,10.342-6.204l8.346-33.51c9.916-29.739,63.317-44.595,163.14-45.338
				c3.098,24.431,19.703,59.708,67.703,59.708c47.974,0,64.589-35.063,67.703-59.366c116.958,0.862,157.619,28.467,162.953,44.373
				l8.533,34.133c0.973,3.874,4.446,6.46,8.269,6.46c0.683,0,1.382-0.077,2.074-0.256
				C510.109,510.597,512.891,505.964,511.748,501.39z"
            />
            <path
              fill="currentColor"
              d="M58.636,42.595l196.267,25.6c0.367,0.043,0.734,0.068,1.101,0.068s0.734-0.026,1.101-0.068L443.737,43.85v29.628
				c-5.35,6.016-17.067,21.026-17.067,37.453c0,18.782,15.309,25.6,25.6,25.6s25.6-6.818,25.6-25.6
				c0-16.427-11.716-31.437-17.067-37.453V34.13c0-1.126-0.239-2.193-0.64-3.183c-0.145-0.35-0.393-0.623-0.58-0.947
				c-0.333-0.597-0.666-1.186-1.126-1.681c-0.299-0.316-0.657-0.529-0.998-0.785c-0.486-0.393-0.964-0.768-1.527-1.041
				c-0.418-0.205-0.862-0.29-1.314-0.418c-0.418-0.128-0.794-0.35-1.246-0.41l-196.267-25.6c-0.734-0.085-1.468-0.085-2.202,0
				l-196.267,25.6c-4.25,0.555-7.432,4.181-7.432,8.465C51.204,38.414,54.387,42.041,58.636,42.595z M460.804,110.93
				c0,6.81-4.617,8.405-8.533,8.533c-3.917-0.128-8.533-1.724-8.533-8.533c0-7.083,4.352-14.985,8.533-20.813
				C456.452,95.946,460.804,103.848,460.804,110.93z M256.004,17.132L386.299,34.13L256.004,51.129L125.708,34.13L256.004,17.132z"
            />
            <path
              fill="currentColor"
              d="M275.673,309.603c-0.273,0.247-6.707,6.127-19.669,6.127c-12.774,0-19.209-5.709-19.652-6.118
				c-3.319-3.251-8.67-3.226-11.981,0.085c-3.337,3.337-3.337,8.73,0,12.066c1.126,1.126,11.605,11.034,31.633,11.034
				s30.507-9.907,31.633-11.034c3.294-3.294,3.285-8.567,0.051-11.913C284.437,306.506,279.078,306.412,275.673,309.603z"
            />
            <path
              fill="currentColor"
              d="M119.47,172.123c-9.933,3.524-17.067,13.013-17.067,24.141v34.133c0,11.904,8.166,21.939,19.2,24.789
				c4.565,13.466,17.178,49.98,24.371,64.358c13.551,27.11,51.977,72.986,110.029,72.986c58.052,0,96.478-45.875,110.029-72.986
				c7.194-14.379,19.806-50.893,24.371-64.358c11.034-2.85,19.2-12.885,19.2-24.789v-34.133c0-11.127-7.134-20.617-17.067-24.141
				v-9.992c0-4.71-3.814-8.533-8.533-8.533s-8.533,3.823-8.533,8.533v17.067c0,4.71,3.814,8.533,8.533,8.533
				c4.71,0,8.533,3.831,8.533,8.533v34.133c0,4.702-3.823,8.533-8.533,8.533c-3.678,0-6.938,2.347-8.09,5.837
				c-0.179,0.503-16.981,50.816-25.139,67.149c-1.306,2.594-32.495,63.548-94.771,63.548s-93.466-60.954-94.771-63.548
				c-8.166-16.333-24.96-66.645-25.139-67.149c-1.161-3.49-4.412-5.837-8.09-5.837c-4.71,0-8.533-3.831-8.533-8.533v-34.133
				c0-4.702,3.823-8.533,8.533-8.533c4.719,0,8.533-3.823,8.533-8.533V162.13c0-4.71-3.814-8.533-8.533-8.533
				s-8.533,3.823-8.533,8.533V172.123z"
            />
            <path
              fill="currentColor"
              d="M128.004,59.73c-4.719,0-8.533,3.823-8.533,8.533v59.733c0,3.234,1.826,6.187,4.719,7.637
				c2.167,1.075,53.896,26.496,131.814,26.496s129.647-25.421,131.814-26.496c2.893-1.451,4.719-4.403,4.719-7.637V68.264
				c0-4.71-3.814-8.533-8.533-8.533s-8.533,3.823-8.533,8.533v54.212c-14.114,5.982-58.778,22.588-119.467,22.588
				s-105.353-16.606-119.467-22.588V68.264C136.537,63.553,132.723,59.73,128.004,59.73z"
            />
          </g>
        </g>
      </g>
    </svg>

    <!-- tutor -->
    <svg
      version="1.1"
      id="tutor"
      xmlns="http://www.w3.org/2000/svg"
      xmlns:xlink="http://www.w3.org/1999/xlink"
      x="0px"
      y="0px"
      viewBox="0 0 496 496"
      xml:space="preserve"
    >
      <g>
        <g>
          <g>
            <path
              fill="currentColor"
              d="M160,240H32v80h128V240z M144,304H48v-48h96V304z"
            />
            <rect x="144" y="336" width="16" height="16" />
            <rect x="80" y="336" width="48" height="16" />
            <path
              fill="currentColor"
              d="M440,328.664V112c0-28.328-21.144-51.808-48.472-55.496c-3.032-23.984-20.44-43.976-44.4-49.968
				C329.776,2.192,311.904,0,294.032,0h-7.04c-10.296,0-20.72,0.744-30.968,2.192C196.72,10.672,152,62.24,152,122.152V208H32
				c-17.648,0-32,14.352-32,32v224c0,17.648,14.352,32,32,32h152h8h304v-74.992C496,381.144,473.944,346.144,440,328.664z
				 M168,122.152c0-51.992,38.816-96.76,90.28-104.112c9.504-1.352,19.168-2.04,28.712-2.04h7.04c16.568,0,33.136,2.04,49.224,6.056
				C362.528,26.88,376,44.128,376,64v8h8c22.056,0,40,17.944,40,40v210.064c-3.08-0.984-6.224-1.864-9.44-2.584L352,305.584v-19.768
				c24.176-17.448,40-45.784,40-77.816V104h-16v4l-6.944,5.208c-12.72,9.544-28.48,14.792-44.368,14.792h-58.752
				c-18.048,0-35.28,5.288-49.936,15.112V136h-16v72c0,32.032,15.824,60.368,40,77.816v19.768l-48,10.656V208h-24V122.152z
				 M231.064,323.96l11.408-2.536l4.352,14.52c7.96,26.52,17.064,45.752,26.696,66.104c4.848,10.24,9.864,20.832,15.128,33.112
				l3.368,7.864l-82.424-61.816L231.064,323.96z M192,382.552V332.64l20.416-4.536L192,382.552z M252,216c19.848,0,36-14.352,36-32
				h16c0,17.648,16.152,32,36,32c19.848,0,36-14.352,36-32c0-1.616-0.272-3.168-0.536-4.728l0.536-0.176V184v24
				c0,44.112-35.888,80-80,80s-80-35.888-80-80v-24v-4.904l0.536,0.176c-0.264,1.56-0.536,3.112-0.536,4.728
				C216,201.648,232.152,216,252,216z M340,152c-13.264,0-24.752,6.48-30.992,16h-26.016c-6.248-9.52-17.728-16-30.992-16
				c-11.672,0-21.968,5.04-28.544,12.72l-6.408-2.136C230.568,150.608,247.72,144,265.936,144h58.752
				c18.256,0,36.328-5.76,51.312-16.168v34.408l-7.456,2.488C361.968,157.04,351.672,152,340,152z M360,184c0,8.824-8.968,16-20,16
				c-11.032,0-20-7.176-20-16c0-8.824,8.968-16,20-16C351.032,168,360,175.176,360,184z M272,184c0,8.824-8.968,16-20,16
				c-11.032,0-20-7.176-20-16c0-8.824,8.968-16,20-16C263.032,168,272,175.176,272,184z M287.976,395.192
				c-9.776-20.656-18.216-38.496-25.832-63.848L256,310.824V295.16c12.192,5.616,25.712,8.84,40,8.84c14.288,0,27.808-3.224,40-8.84
				v15.664l-6.16,20.52c-7.608,25.36-16.056,43.192-25.832,63.848c-2.616,5.528-5.28,11.16-8.016,17.112
				C293.256,406.352,290.592,400.728,287.976,395.192z M303.352,435.152c5.256-12.272,10.272-22.864,15.128-33.112
				c9.632-20.352,18.736-39.576,26.696-66.104l4.352-14.52l11.408,2.536l21.472,57.24l-82.424,61.816L303.352,435.152z M16,240
				c0-8.824,7.176-16,16-16h144v208H32c-5.824,0-11.288,1.56-16,4.296V240z M156.296,480H32c-8.824,0-16-7.176-16-16
				c0-8.824,7.176-16,16-16h124.296c-2.736,4.712-4.296,10.176-4.296,16C152,469.824,153.56,475.288,156.296,480z M480,480h-64v-32
				h-16v32H192h-8c-8.824,0-16-7.176-16-16c0-8.824,7.176-16,16-16h8v-60l104,78l105.592-79.192l-22.008-58.704l31.512,7.008
				C451.664,344.12,480,379.448,480,421.008V480z"
            />
          </g>
        </g>
      </g>
    </svg>
  </defs>
</svg>
